<?xml version="1.0" encoding="UTF-8" standalone="no"?>
<svg
   xmlns:dc="http://purl.org/dc/elements/1.1/"
   xmlns:cc="http://creativecommons.org/ns#"
   xmlns:rdf="http://www.w3.org/1999/02/22-rdf-syntax-ns#"
   xmlns:svg="http://www.w3.org/2000/svg"
   xmlns="http://www.w3.org/2000/svg"
   xmlns:sodipodi="http://sodipodi.sourceforge.net/DTD/sodipodi-0.dtd"
   xmlns:inkscape="http://www.inkscape.org/namespaces/inkscape"
   version="1.1"
   id="Layer_1"
   x="0px"
   y="0px"
   width="110px"
   height="37px"
   preserveAspectRatio="xMinYMin meet"
   viewBox="0 0 110 37"
   enable-background="new 0 0 110 37"
   xml:space="preserve"
   inkscape:version="0.48.2 r9819"
   sodipodi:docname="yopolis.svg"><metadata
   id="metadata3023"><rdf:RDF><cc:Work
       rdf:about=""><dc:format>image/svg+xml</dc:format><dc:type
         rdf:resource="http://purl.org/dc/dcmitype/StillImage" /></cc:Work></rdf:RDF></metadata><defs
   id="defs3021" /><sodipodi:namedview
   pagecolor="#ffffff"
   bordercolor="#666666"
   borderlayer="false" />
<g
   id="g3008"
   transform="matrix(0.58235234,0,0,0.60191765,-0.030792,-29.183217)">
	<g
   id="йополис">
		<g
   id="g3011">
			<path
   d="m 50.644,77.449 c -0.476,-1.719 -1.222,-3.188 -2.24,-4.408 -1.017,-1.223 -2.338,-2.137 -3.967,-2.748 -1.629,-0.611 -3.642,-0.803 -6.038,-0.576 -1.221,0.092 -2.466,0.51 -3.731,1.254 -1.266,0.748 -2.408,1.719 -3.425,2.918 -1.017,1.199 -1.833,2.602 -2.441,4.205 -0.61,1.605 -0.872,3.336 -0.78,5.189 0,2.035 0.271,3.947 0.813,5.732 0.543,1.787 1.333,3.346 2.375,4.68 1.039,1.336 2.351,2.354 3.934,3.053 1.583,0.701 3.391,0.984 5.427,0.85 1.673,-0.137 3.211,-0.588 4.613,-1.357 1.4,-0.77 2.578,-1.775 3.527,-3.02 0.949,-1.242 1.663,-2.723 2.138,-4.443 0.474,-1.717 0.667,-3.639 0.577,-5.766 -0.049,-1.989 -0.308,-3.844 -0.782,-5.563 z m -5.833,12.854 c -1.019,1.473 -2.523,2.32 -4.511,2.545 -1.9,0.229 -3.505,-0.373 -4.816,-1.797 -1.313,-1.424 -2.082,-3.766 -2.308,-7.021 -0.045,-0.992 0.044,-2.021 0.271,-3.086 0.226,-1.062 0.577,-2.035 1.052,-2.918 0.474,-0.881 1.084,-1.627 1.831,-2.238 0.747,-0.609 1.617,-0.984 2.611,-1.119 1.086,-0.135 2.092,-0.078 3.019,0.17 0.927,0.25 1.718,0.725 2.375,1.424 0.655,0.703 1.164,1.697 1.525,2.986 0.361,1.289 0.565,2.904 0.612,4.85 -0.092,2.667 -0.645,4.737 -1.661,6.204 z M 19.79,71.662 c -2.358,0.295 -2.066,3.467 -4.703,7.172 -2.884,4.057 -7.533,9.766 -8.5,9.627 C 5.83,88.35 6.149,79.734 6.549,72.682 6.858,67.237 6.587,66.077 4.528,66.051 c -3.108,-0.041 -3.281,5 -3.281,14.373 0,4.24 0.265,15.307 4.293,14.896 5.109,-0.516 12.29,-11.588 12.836,-10.697 0.634,1.037 -0.244,19.814 -0.525,22.773 -0.197,2.09 -0.687,3.922 1.536,3.957 5.343,0.086 5.245,-27.205 3.793,-36.924 -0.418,-2.804 -2.982,-2.818 -3.39,-2.767 z m 57.577,0.836 c -0.839,-1.221 -2.162,-1.945 -3.97,-2.17 -1.763,-0.182 -3.583,-0.295 -5.459,-0.34 -1.879,-0.045 -3.676,0 -5.393,0.135 -2.578,0.227 -4.478,1.188 -5.7,2.883 -1.221,1.697 -1.696,3.969 -1.424,6.818 0.226,2.623 0.327,5.324 0.306,8.105 -0.024,2.781 -0.103,5.574 -0.238,8.377 -0.044,0.365 0.021,0.68 0.204,0.951 0.18,0.27 0.497,0.406 0.95,0.406 0.994,0 1.796,-0.236 2.408,-0.711 0.609,-0.477 0.96,-1.098 1.051,-1.867 0.361,-2.666 0.564,-5.324 0.612,-7.969 0.044,-2.646 0,-5.326 -0.137,-8.039 -0.135,-2.26 1.039,-3.596 3.527,-4.004 1.131,-0.18 2.261,-0.281 3.392,-0.305 1.13,-0.021 2.307,0.08 3.526,0.305 0.68,0.092 1.211,0.34 1.595,0.748 0.383,0.406 0.62,1.176 0.712,2.307 0.225,2.668 0.383,5.494 0.476,8.479 0.089,2.984 0.089,5.812 0,8.479 -0.047,0.77 0.158,1.391 0.61,1.867 0.45,0.475 1.311,0.711 2.578,0.711 0.45,0 0.849,-0.125 1.187,-0.373 0.34,-0.248 0.531,-0.553 0.576,-0.914 0.136,-2.895 0.215,-5.938 0.239,-9.125 0.021,-3.188 -0.058,-6.635 -0.239,-10.346 -0.09,-1.717 -0.554,-3.187 -1.389,-4.408 z m 27.502,4.951 c -0.476,-1.719 -1.223,-3.188 -2.24,-4.408 -1.018,-1.223 -2.34,-2.137 -3.969,-2.748 -1.627,-0.611 -3.641,-0.803 -6.037,-0.576 -1.221,0.092 -2.464,0.51 -3.73,1.254 -1.266,0.748 -2.408,1.719 -3.425,2.918 -1.018,1.199 -1.832,2.602 -2.442,4.205 -0.611,1.605 -0.871,3.336 -0.781,5.189 0,2.035 0.271,3.947 0.815,5.732 0.542,1.787 1.333,3.346 2.374,4.68 1.041,1.336 2.352,2.354 3.935,3.053 1.582,0.701 3.391,0.984 5.427,0.85 1.673,-0.137 3.211,-0.588 4.612,-1.357 1.4,-0.77 2.578,-1.775 3.527,-3.02 0.95,-1.242 1.662,-2.723 2.138,-4.443 0.475,-1.717 0.667,-3.639 0.575,-5.766 -0.045,-1.989 -0.304,-3.844 -0.779,-5.563 z m -5.834,12.854 c -1.019,1.473 -2.521,2.32 -4.511,2.545 -1.901,0.229 -3.507,-0.373 -4.817,-1.797 -1.312,-1.424 -2.08,-3.766 -2.307,-7.021 -0.045,-0.992 0.045,-2.021 0.271,-3.086 0.227,-1.062 0.576,-2.035 1.051,-2.918 0.476,-0.881 1.086,-1.627 1.833,-2.238 0.744,-0.609 1.616,-0.984 2.61,-1.119 1.086,-0.135 2.092,-0.078 3.02,0.17 0.927,0.25 1.718,0.725 2.375,1.424 0.654,0.703 1.163,1.697 1.525,2.986 0.361,1.289 0.565,2.904 0.609,4.85 -0.09,2.667 -0.642,4.737 -1.659,6.204 z m 91.062,0.851 c -0.091,-0.498 -0.339,-0.816 -0.745,-0.951 -0.408,-0.137 -0.837,-0.092 -1.289,0.135 -0.679,0.318 -1.458,0.566 -2.341,0.746 -0.881,0.182 -1.775,0.271 -2.679,0.271 -1.041,0 -2.059,-0.146 -3.052,-0.441 -0.996,-0.293 -1.891,-0.734 -2.681,-1.322 -0.792,-0.586 -1.425,-1.311 -1.9,-2.17 -0.474,-0.859 -0.712,-1.854 -0.712,-2.984 0,-6.828 3.597,-10.107 10.786,-9.838 1.086,0.047 1.809,-0.055 2.171,-0.305 0.361,-0.248 0.565,-0.688 0.609,-1.322 0.047,-0.904 -0.383,-1.629 -1.288,-2.17 -0.723,-0.408 -1.628,-0.668 -2.712,-0.781 -1.087,-0.111 -2.149,-0.123 -3.189,-0.033 -1.81,0.227 -3.459,0.734 -4.953,1.525 -1.491,0.793 -2.78,1.799 -3.864,3.02 -1.087,1.221 -1.935,2.635 -2.543,4.24 -0.612,1.605 -0.918,3.289 -0.918,5.053 0,0.951 0.091,1.945 0.271,2.984 0.181,1.041 0.554,2.07 1.12,3.086 0.564,1.018 1.357,1.98 2.373,2.883 1.018,0.906 2.363,1.697 4.036,2.375 1.448,0.543 3.03,0.826 4.749,0.85 1.718,0.021 3.279,-0.125 4.681,-0.443 0.496,-0.135 1.006,-0.314 1.525,-0.541 0.519,-0.227 0.983,-0.52 1.391,-0.883 0.408,-0.359 0.724,-0.791 0.951,-1.289 0.226,-0.497 0.294,-1.064 0.203,-1.695 z M 159.584,71.533 c -2.857,0.016 -2.024,3.1 -4.626,6.723 -3.525,4.916 -8.397,10.84 -8.79,10.209 -0.819,-1.324 -0.443,-7.641 0.114,-17.455 0.062,-1.324 -0.548,-2.523 -1.98,-2.523 -0.771,0 -1.745,0.332 -1.745,0.332 0,0 -1.917,-0.598 -1.558,12.516 0.147,5.387 0.476,11.107 1.852,12.785 0.681,0.83 2.018,1.412 3.574,0.834 2.424,-0.9 5.592,-3.963 8.937,-7.934 2.49,-2.959 2.524,-2.338 2.498,-1.471 -0.072,2.352 0.257,4.951 0.119,7.488 -0.168,4.793 4.729,2.811 5.324,-0.258 0.297,-1.471 0.346,-9.672 -0.097,-15.861 -0.179,-2.48 -0.913,-5.402 -3.622,-5.385 z m -26.301,0.965 c -0.838,-1.221 -2.16,-1.945 -3.969,-2.17 -1.797,-0.186 -5.255,-0.34 -6.971,-0.205 -2.576,0.227 -4.5,1.188 -5.765,2.883 -1.267,1.697 -1.721,3.969 -1.356,6.818 0.18,1.447 0.281,2.906 0.304,4.375 0.023,1.471 -0.033,2.883 -0.168,4.24 -0.092,0.904 -0.228,1.672 -0.407,2.305 -0.182,0.635 -0.476,1.145 -0.884,1.527 -0.405,0.385 -0.947,0.668 -1.627,0.848 -0.678,0.182 -1.56,0.271 -2.646,0.271 -0.77,0 -1.3,0.182 -1.593,0.541 -0.296,0.365 -0.465,0.793 -0.51,1.291 -0.046,0.543 0.146,1.084 0.576,1.627 0.43,0.543 1.143,0.814 2.137,0.814 3.257,0 5.665,-0.689 7.225,-2.068 1.561,-1.379 2.43,-3.426 2.611,-6.139 0.09,-1.494 0.124,-3.223 0.103,-5.189 -0.023,-1.967 -0.124,-3.697 -0.306,-5.189 -0.271,-2.26 1.024,-3.717 3.648,-4.123 3.275,-0.523 4.741,0.393 5.187,0.867 0.385,0.406 0.684,1.338 0.773,2.469 0.226,2.668 0.322,5.332 0.414,8.316 0.092,2.984 0.092,5.812 0,8.479 -0.045,0.77 0.157,1.402 0.611,1.9 0.451,0.498 1.198,0.723 2.238,0.678 0.451,-0.09 0.847,-0.236 1.188,-0.439 0.34,-0.205 0.529,-0.486 0.576,-0.848 0.136,-2.895 0.215,-5.938 0.238,-9.125 0.021,-3.188 -0.059,-6.635 -0.238,-10.346 -0.09,-1.717 -0.552,-3.187 -1.389,-4.408 z"
   id="path3013"
   inkscape:connector-curvature="0" />
		</g>
	</g>
	<path
   d="m 16.917,57.141 -4.056,5.05 c 0,0 -0.608,-1.385 -1.054,-2.739 -0.848,-2.568 -2.326,-6.19 -5.179,-5.631 -1.903,0.372 -4.523,2.233 -4.523,2.233 l 11.241,11.644 5.298,-4.99 0.208,-0.125 -1.935,-5.442 z"
   id="path3015"
   inkscape:connector-curvature="0"
   style="fill:#2ea54a" />
	<polygon
   points="29.934,49.883 26.768,50.287 17.143,56.861 16.917,57.141 18.853,62.582 23.908,59.574 "
   id="polygon3017"
   style="fill:#1f9649" />
</g>
</svg>